Patient4_TMGait_0pt5_02_right_15_GRF.mot
version=1
nRows=45
nColumns=19
inDegrees=no
endheader
time	F1x	F1y	F1z	M1x	M1y	M1z	F2x	F2y	F2z	M2x	M2y	M2z	EC1x	EC1y	EC1z	EC2x	EC2y	EC2z
19.62	6.9711	797.1408	64.4203	-306.7163	-48.4676	663.3564	1.9907	5.1407	-5.9006	4.1567	1.7571	6.8403	-0.0592	0.0182	-0.0073	-0.0462	0.0165	0.9585
19.6329	4.4225	786.1231	66.6542	-302.4564	-50.7007	651.6769	1.3403	4.1856	-4.2032	3.1276	1.4036	5.3393	-0.0592	0.0182	-0.0073	-0.0462	0.0165	0.9585
19.6459	2.5614	774.6218	68.4718	-297.8886	-52.308	639.2853	0.78521	3.4135	-2.6581	2.2366	0.99658	4.1125	-0.0592	0.0182	-0.0073	-0.0462	0.0165	0.9585
19.6588	1.5351	763.5217	69.7591	-293.3673	-53.1698	626.9846	0.35553	2.8699	-1.4167	1.5537	0.62338	3.2309	-0.0592	0.0182	-0.0073	-0.0462	0.0165	0.9585
19.6717	1.3364	753.5423	70.4934	-289.2092	-53.2839	615.4041	0.055954	2.535	-0.5101	1.0844	0.32031	2.6658	-0.0592	0.0182	-0.0073	-0.0462	0.0165	0.9585
19.6846	1.8779	745.1757	70.7429	-285.6492	-52.7458	604.9637	-0.14296	2.3633	0.081232	0.79849	0.11257	2.3484	-0.0592	0.0182	-0.0073	-0.0462	0.0165	0.9585
19.6976	3.0511	738.6837	70.5914	-282.825	-51.6688	595.8783	-0.2646	2.2849	0.41794	0.64551	-0.0036322	2.1785	-0.0592	0.0182	-0.0073	-0.0462	0.0165	0.9585
19.7105	4.7333	734.1324	70.145	-280.7864	-50.1848	588.2022	-0.34538	2.2264	0.56442	0.56922	-0.041024	2.069	-0.0592	0.0182	-0.0073	-0.0462	0.0165	0.9585
19.7234	6.8246	731.4552	69.4994	-279.5204	-48.4088	581.8881	-0.41115	2.1028	0.5896	0.51194	-0.028591	1.9199	-0.0592	0.0182	-0.0073	-0.0462	0.0165	0.9585
19.7364	9.2493	730.5016	68.7427	-278.9719	-46.4395	576.8255	-0.48093	1.8144	0.54227	0.41679	0.017163	1.6245	-0.0592	0.0182	-0.0073	-0.0462	0.0165	0.9585
19.7493	11.9465	731.0645	67.9423	-279.0547	-44.3552	572.8626	-0.56607	1.2541	0.47056	0.23091	0.074343	1.0808	-0.0592	0.0182	-0.0073	-0.0462	0.0165	0.9585
19.7622	14.8627	732.885	67.1552	-279.6563	-42.223	569.8197	-0.65366	0.31201	0.40302	-0.094536	0.12893	0.17648	-0.0592	0.0182	-0.0073	-0.0462	0.0165	0.9585
19.7751	17.9522	735.6405	66.4319	-280.6343	-40.0983	567.4798	-0.72047	-1.0912	0.36067	-0.59304	0.16135	-1.1652	-0.0592	0.0182	-0.0073	-0.0462	0.0165	0.9585
19.7881	21.1689	738.9232	65.8062	-281.8138	-38.0219	565.5735	-0.71449	-2.9699	0.35688	-1.2705	0.13854	-2.9619	-0.0592	0.0182	-0.0073	-0.0462	0.0165	0.9585
19.801	24.4631	742.2357	65.3046	-282.985	-36.0313	563.7607	-0.56775	-5.2221	0.39714	-2.0887	0.027195	-5.1187	-0.0592	0.0182	-0.0073	-0.0462	0.0165	0.9585
19.8139	27.8102	745.025	64.9302	-283.919	-34.137	561.6601	-0.1799	-7.5673	0.49284	-2.9408	-0.22206	-7.375	-0.0592	0.0182	-0.0073	-0.0462	0.0165	0.9585
19.8269	31.1817	746.6945	64.6797	-284.3736	-32.3416	558.8619	0.56167	-9.4519	0.64326	-3.6195	-0.6503	-9.2099	-0.0592	0.0182	-0.0073	-0.0462	0.0165	0.9585
19.8398	34.5594	746.6378	64.5403	-284.1089	-30.6415	554.9386	1.7654	-9.9681	0.85128	-3.7872	-1.2994	-9.7732	-0.0592	0.0182	-0.0073	-0.0462	0.0165	0.9585
19.8527	37.9097	744.3214	64.5048	-282.9195	-29.0457	549.5235	3.5174	-7.7965	1.095	-2.9527	-2.1761	-7.8353	-0.0592	0.0182	-0.0073	-0.0462	0.0165	0.9585
19.8656	41.215	739.3549	64.5585	-280.6612	-27.5557	542.36	5.8237	-1.1933	1.3387	-0.46592	-3.2371	-1.7548	-0.0592	0.0182	-0.0073	-0.0462	0.0165	0.9585
19.8786	44.4423	731.5026	64.667	-277.2564	-26.1635	533.3041	8.5563	11.9179	1.5015	4.4467	-4.3456	10.4427	-0.0592	0.0182	-0.0073	-0.0462	0.0165	0.9585
19.8915	47.5324	720.5936	64.7422	-272.6634	-24.8375	522.2696	11.3606	33.6939	1.4648	12.5876	-5.2481	30.8344	-0.0592	0.0182	-0.0073	-0.0462	0.0165	0.9585
19.9044	50.3877	706.3766	64.6263	-266.8193	-23.5084	509.1207	13.5229	65.924	1.0608	24.6204	-5.5151	61.1653	-0.0592	0.0182	-0.0073	-0.0462	0.0165	0.9585
19.9174	52.8843	688.4136	64.1124	-259.5963	-22.0827	493.5932	13.7406	109.4018	0.13346	40.8345	-4.5121	102.2585	-0.0592	0.0182	-0.0073	-0.0462	0.0165	0.9585
19.9303	54.8656	666.0331	62.9709	-250.7822	-20.465	475.2484	10.5153	163.2773	-1.4944	60.9033	-1.5241	153.4088	-0.0592	0.0182	-0.0073	-0.0462	0.0165	0.9585
19.9432	56.1263	638.3831	61.0036	-240.0899	-18.6006	453.5216	3.4702	224.7248	-3.9252	83.7533	3.6695	212.005	-0.0592	0.0182	-0.0073	-0.0462	0.0165	0.9585
19.9561	56.4148	604.58	58.0806	-227.2075	-16.4949	427.8311	-6.2781	288.5243	-7.2015	107.4198	10.6612	273.0119	-0.0592	0.0182	-0.0073	-0.0462	0.0165	0.9585
19.9691	55.4571	563.966	54.2225	-211.891	-14.2748	397.7557	-16.9165	348.5117	-11.2745	129.5971	18.6854	330.3285	-0.0592	0.0182	-0.0073	-0.0462	0.0165	0.9585
19.982	53.0294	516.4964	49.5743	-194.1045	-12.1275	363.2881	-26.8874	400.6838	-15.8509	148.7857	26.8396	379.8941	-0.0592	0.0182	-0.0073	-0.0462	0.0165	0.9585
19.9949	49.0484	462.9339	44.4453	-174.0955	-10.2969	324.9569	-35.4599	444.6034	-20.6217	164.8097	34.536	421.1736	-0.0592	0.0182	-0.0073	-0.0462	0.0165	0.9585
20.0079	43.6129	404.8013	39.1356	-152.3907	-8.9349	283.7875	-42.5103	482.441	-25.2366	178.4708	41.3938	456.2127	-0.0592	0.0182	-0.0073	-0.0462	0.0165	0.9585
20.0208	36.9747	344.1603	33.885	-129.7234	-8.0956	241.1474	-48.144	517.3044	-29.4926	190.9111	47.2775	487.9723	-0.0592	0.0182	-0.0073	-0.0462	0.0165	0.9585
20.0337	29.4631	283.3932	28.7986	-106.9621	-7.7071	198.6257	-52.4877	551.9717	-33.3826	203.1322	52.2557	519.0842	-0.0592	0.0182	-0.0073	-0.0462	0.0165	0.9585
20.0466	21.4711	224.9838	23.9704	-85.0296	-7.6746	157.8922	-55.7234	588.1822	-37.1133	215.7337	56.6083	551.2319	-0.0592	0.0182	-0.0073	-0.0462	0.0165	0.9585
20.0596	13.5179	171.3253	19.48	-64.8264	-7.8422	120.5512	-58.0561	626.3107	-40.9937	228.8047	60.7155	584.8469	-0.0592	0.0182	-0.0073	-0.0462	0.0165	0.9585
20.0725	6.2273	124.401	15.4436	-47.108	-8.0384	87.9178	-59.7186	665.2898	-45.3191	241.9109	64.9394	619.0574	-0.0592	0.0182	-0.0073	-0.0462	0.0165	0.9585
20.0854	0.23166	85.4098	11.9297	-32.3481	-8.0544	60.7644	-60.8931	702.9642	-50.1875	254.2521	69.4347	651.9555	-0.0592	0.0182	-0.0073	-0.0462	0.0165	0.9585
20.0984	-4.0599	54.6337	8.9494	-20.6775	-7.7346	39.2614	-61.6901	736.8773	-55.4409	264.964	74.0918	681.3115	-0.0592	0.0182	-0.0073	-0.0462	0.0165	0.9585
20.1113	-6.5269	31.5958	6.4443	-11.9348	-6.9967	23.0792	-62.087	764.9751	-60.6964	273.3749	78.5538	705.2101	-0.0592	0.0182	-0.0073	-0.0462	0.0165	0.9585
20.1242	-7.3042	15.3391	4.3527	-5.765	-5.8631	11.5819	-61.9723	785.8957	-65.4727	279.097	82.3498	722.346	-0.0592	0.0182	-0.0073	-0.0462	0.0165	0.9585
20.1371	-6.7609	4.6846	2.6423	-1.7256	-4.4676	3.9793	-61.244	798.9586	-69.337	281.997	85.0623	732.0506	-0.0592	0.0182	-0.0073	-0.0462	0.0165	0.9585
20.1501	-5.4885	-1.5477	1.3315	0.63221	-3.0575	-0.52327	-59.8293	804.1169	-72.0047	282.1608	86.4279	734.2427	-0.0592	0.0182	-0.0073	-0.0462	0.0165	0.9585
20.163	-3.9985	-4.5255	0.43571	1.7551	-1.8509	-2.7174	-57.7375	802	-73.3491	279.9014	86.3559	729.4925	-0.0592	0.0182	-0.0073	-0.0462	0.0165	0.9585
20.1759	-2.5949	-5.343	-0.11837	2.0584	-0.9157	-3.3728	-55.0377	793.93	-73.384	275.7604	84.9039	718.9927	-0.0592	0.0182	-0.0073	-0.0462	0.0165	0.9585
20.1889	-1.4376	-4.9007	-0.40077	1.8843	-0.26894	-3.1284	-51.8579	781.8544	-72.2429	270.4789	82.255	704.497	-0.0592	0.0182	-0.0073	-0.0462	0.0165	0.9585
